<mxfile host="Electron" modified="2024-04-14T00:14:22.397Z" agent="Mozilla/5.0 (Windows NT 10.0; Win64; x64) AppleWebKit/537.36 (KHTML, like Gecko) draw.io/24.1.0 Chrome/120.0.6099.109 Electron/28.1.0 Safari/537.36" etag="gbx9yBSFzZGs-3EVccZe" version="24.1.0" type="device">
  <diagram name="Page-1" id="08slAmHaFvXFLs0zb0nz">
    <mxGraphModel dx="1050" dy="621" grid="1" gridSize="10" guides="1" tooltips="1" connect="1" arrows="1" fold="1" page="1" pageScale="1" pageWidth="827" pageHeight="1169" math="0" shadow="0">
      <root>
        <mxCell id="0" />
        <mxCell id="1" parent="0" />
        <mxCell id="-KgLNwUY_77QUvKspgZY-1" value="" style="ellipse;html=1;" parent="1" vertex="1">
          <mxGeometry x="380" y="70" width="30" height="30" as="geometry" />
        </mxCell>
        <mxCell id="-KgLNwUY_77QUvKspgZY-2" value="" style="endArrow=open;html=1;rounded=0;align=center;verticalAlign=top;endFill=0;labelBackgroundColor=none;endSize=6;entryX=0.5;entryY=0;entryDx=0;entryDy=0;" parent="1" source="-KgLNwUY_77QUvKspgZY-1" target="-KgLNwUY_77QUvKspgZY-3" edge="1">
          <mxGeometry relative="1" as="geometry">
            <mxPoint x="395" y="160" as="targetPoint" />
          </mxGeometry>
        </mxCell>
        <mxCell id="-KgLNwUY_77QUvKspgZY-5" style="edgeStyle=orthogonalEdgeStyle;rounded=0;orthogonalLoop=1;jettySize=auto;html=1;exitX=0.5;exitY=1;exitDx=0;exitDy=0;" parent="1" source="-KgLNwUY_77QUvKspgZY-3" target="-KgLNwUY_77QUvKspgZY-4" edge="1">
          <mxGeometry relative="1" as="geometry" />
        </mxCell>
        <mxCell id="-KgLNwUY_77QUvKspgZY-3" value="Odabir ekrana za upravljanje rezervacijama" style="rounded=1;whiteSpace=wrap;html=1;" parent="1" vertex="1">
          <mxGeometry x="335" y="170" width="120" height="60" as="geometry" />
        </mxCell>
        <mxCell id="-KgLNwUY_77QUvKspgZY-7" style="edgeStyle=orthogonalEdgeStyle;rounded=0;orthogonalLoop=1;jettySize=auto;html=1;exitX=0.5;exitY=1;exitDx=0;exitDy=0;entryX=0.5;entryY=0;entryDx=0;entryDy=0;" parent="1" source="-KgLNwUY_77QUvKspgZY-4" target="-KgLNwUY_77QUvKspgZY-6" edge="1">
          <mxGeometry relative="1" as="geometry" />
        </mxCell>
        <mxCell id="-KgLNwUY_77QUvKspgZY-4" value="Dohvat svih rezervacija iz baze podataka" style="rounded=1;whiteSpace=wrap;html=1;" parent="1" vertex="1">
          <mxGeometry x="335" y="300" width="120" height="60" as="geometry" />
        </mxCell>
        <mxCell id="-KgLNwUY_77QUvKspgZY-6" value="Prikaz liste svih rezervacija" style="rounded=1;whiteSpace=wrap;html=1;" parent="1" vertex="1">
          <mxGeometry x="335" y="430" width="120" height="60" as="geometry" />
        </mxCell>
        <mxCell id="-KgLNwUY_77QUvKspgZY-21" style="edgeStyle=orthogonalEdgeStyle;rounded=0;orthogonalLoop=1;jettySize=auto;html=1;exitX=0.5;exitY=1;exitDx=0;exitDy=0;entryX=0.5;entryY=0;entryDx=0;entryDy=0;" parent="1" source="-KgLNwUY_77QUvKspgZY-8" target="-KgLNwUY_77QUvKspgZY-20" edge="1">
          <mxGeometry relative="1" as="geometry" />
        </mxCell>
        <mxCell id="-KgLNwUY_77QUvKspgZY-22" value="Da" style="edgeLabel;html=1;align=center;verticalAlign=middle;resizable=0;points=[];" parent="-KgLNwUY_77QUvKspgZY-21" vertex="1" connectable="0">
          <mxGeometry x="-0.12" y="-1" relative="1" as="geometry">
            <mxPoint as="offset" />
          </mxGeometry>
        </mxCell>
        <mxCell id="-KgLNwUY_77QUvKspgZY-8" value="" style="html=1;align=center;verticalAlign=top;rounded=1;absoluteArcSize=1;arcSize=20;dashed=1;whiteSpace=wrap;" parent="1" vertex="1">
          <mxGeometry x="150" y="530" width="490" height="280" as="geometry" />
        </mxCell>
        <mxCell id="-KgLNwUY_77QUvKspgZY-18" style="edgeStyle=orthogonalEdgeStyle;rounded=0;orthogonalLoop=1;jettySize=auto;html=1;exitX=0;exitY=0.5;exitDx=0;exitDy=0;exitPerimeter=0;entryX=0.5;entryY=0;entryDx=0;entryDy=0;entryPerimeter=0;" parent="1" source="-KgLNwUY_77QUvKspgZY-12" target="-KgLNwUY_77QUvKspgZY-40" edge="1">
          <mxGeometry relative="1" as="geometry">
            <mxPoint x="329.96" y="585" as="sourcePoint" />
            <mxPoint x="234" y="650" as="targetPoint" />
            <Array as="points">
              <mxPoint x="330" y="597" />
              <mxPoint x="230" y="597" />
            </Array>
          </mxGeometry>
        </mxCell>
        <mxCell id="-KgLNwUY_77QUvKspgZY-26" value="Unos nove rezervacije" style="edgeLabel;html=1;align=center;verticalAlign=middle;resizable=0;points=[];" parent="-KgLNwUY_77QUvKspgZY-18" vertex="1" connectable="0">
          <mxGeometry x="-0.1111" relative="1" as="geometry">
            <mxPoint as="offset" />
          </mxGeometry>
        </mxCell>
        <mxCell id="-KgLNwUY_77QUvKspgZY-36" style="edgeStyle=orthogonalEdgeStyle;rounded=0;orthogonalLoop=1;jettySize=auto;html=1;exitX=1;exitY=0.5;exitDx=0;exitDy=0;exitPerimeter=0;entryX=0.592;entryY=-0.059;entryDx=0;entryDy=0;entryPerimeter=0;" parent="1" source="-KgLNwUY_77QUvKspgZY-12" target="-KgLNwUY_77QUvKspgZY-44" edge="1">
          <mxGeometry relative="1" as="geometry">
            <mxPoint x="560" y="650" as="targetPoint" />
            <Array as="points">
              <mxPoint x="559" y="598" />
            </Array>
          </mxGeometry>
        </mxCell>
        <mxCell id="-KgLNwUY_77QUvKspgZY-38" value="Otkazivanje rezervacije" style="edgeLabel;html=1;align=center;verticalAlign=middle;resizable=0;points=[];" parent="-KgLNwUY_77QUvKspgZY-36" vertex="1" connectable="0">
          <mxGeometry x="-0.1551" y="-4" relative="1" as="geometry">
            <mxPoint y="-4" as="offset" />
          </mxGeometry>
        </mxCell>
        <mxCell id="-KgLNwUY_77QUvKspgZY-12" value="&lt;font style=&quot;font-size: 10px;&quot;&gt;Odabir akcije&lt;/font&gt;" style="strokeWidth=2;html=1;shape=mxgraph.flowchart.decision;whiteSpace=wrap;" parent="1" vertex="1">
          <mxGeometry x="366.25" y="570" width="57.5" height="55" as="geometry" />
        </mxCell>
        <mxCell id="-KgLNwUY_77QUvKspgZY-15" value="Loop |Sve dok član&lt;div&gt;upravlja sustavom&lt;/div&gt;" style="text;html=1;align=center;verticalAlign=middle;whiteSpace=wrap;rounded=0;" parent="1" vertex="1">
          <mxGeometry x="130" y="540" width="160" height="10" as="geometry" />
        </mxCell>
        <mxCell id="-KgLNwUY_77QUvKspgZY-19" value="&lt;font style=&quot;font-size: 10px;&quot;&gt;Kraj upravljanja&lt;/font&gt;" style="strokeWidth=2;html=1;shape=mxgraph.flowchart.decision;whiteSpace=wrap;" parent="1" vertex="1">
          <mxGeometry x="366.25" y="755" width="57.5" height="55" as="geometry" />
        </mxCell>
        <mxCell id="-KgLNwUY_77QUvKspgZY-46" style="edgeStyle=orthogonalEdgeStyle;rounded=0;orthogonalLoop=1;jettySize=auto;html=1;exitX=0.5;exitY=1;exitDx=0;exitDy=0;" parent="1" source="-KgLNwUY_77QUvKspgZY-20" target="-KgLNwUY_77QUvKspgZY-45" edge="1">
          <mxGeometry relative="1" as="geometry" />
        </mxCell>
        <mxCell id="-KgLNwUY_77QUvKspgZY-20" value="Završetak upravljanja rezervacijama" style="rounded=1;whiteSpace=wrap;html=1;" parent="1" vertex="1">
          <mxGeometry x="335" y="860" width="120" height="60" as="geometry" />
        </mxCell>
        <mxCell id="-KgLNwUY_77QUvKspgZY-13" style="edgeStyle=orthogonalEdgeStyle;rounded=0;orthogonalLoop=1;jettySize=auto;html=1;exitX=0.5;exitY=1;exitDx=0;exitDy=0;" parent="1" source="-KgLNwUY_77QUvKspgZY-6" target="-KgLNwUY_77QUvKspgZY-12" edge="1">
          <mxGeometry relative="1" as="geometry" />
        </mxCell>
        <mxCell id="-KgLNwUY_77QUvKspgZY-23" style="edgeStyle=orthogonalEdgeStyle;rounded=0;orthogonalLoop=1;jettySize=auto;html=1;exitX=1;exitY=0.5;exitDx=0;exitDy=0;exitPerimeter=0;entryX=0.5;entryY=0;entryDx=0;entryDy=0;entryPerimeter=0;" parent="1" source="-KgLNwUY_77QUvKspgZY-19" target="-KgLNwUY_77QUvKspgZY-12" edge="1">
          <mxGeometry relative="1" as="geometry">
            <Array as="points">
              <mxPoint x="610" y="783" />
              <mxPoint x="610" y="550" />
              <mxPoint x="395" y="550" />
            </Array>
          </mxGeometry>
        </mxCell>
        <mxCell id="-KgLNwUY_77QUvKspgZY-24" value="Ne" style="edgeLabel;html=1;align=center;verticalAlign=middle;resizable=0;points=[];" parent="-KgLNwUY_77QUvKspgZY-23" vertex="1" connectable="0">
          <mxGeometry x="-0.123" y="-4" relative="1" as="geometry">
            <mxPoint as="offset" />
          </mxGeometry>
        </mxCell>
        <mxCell id="-KgLNwUY_77QUvKspgZY-25" style="edgeStyle=orthogonalEdgeStyle;rounded=0;orthogonalLoop=1;jettySize=auto;html=1;exitX=0.5;exitY=1;exitDx=0;exitDy=0;entryX=0.5;entryY=0;entryDx=0;entryDy=0;entryPerimeter=0;exitPerimeter=0;" parent="1" source="-KgLNwUY_77QUvKspgZY-40" target="-KgLNwUY_77QUvKspgZY-19" edge="1">
          <mxGeometry relative="1" as="geometry">
            <mxPoint x="230" y="710" as="sourcePoint" />
            <Array as="points">
              <mxPoint x="230" y="730" />
              <mxPoint x="395" y="730" />
            </Array>
          </mxGeometry>
        </mxCell>
        <mxCell id="-KgLNwUY_77QUvKspgZY-34" style="edgeStyle=orthogonalEdgeStyle;rounded=0;orthogonalLoop=1;jettySize=auto;html=1;exitX=0.5;exitY=1;exitDx=0;exitDy=0;exitPerimeter=0;entryX=0.5;entryY=0;entryDx=0;entryDy=0;entryPerimeter=0;" parent="1" source="-KgLNwUY_77QUvKspgZY-12" target="-KgLNwUY_77QUvKspgZY-19" edge="1">
          <mxGeometry relative="1" as="geometry" />
        </mxCell>
        <mxCell id="-KgLNwUY_77QUvKspgZY-37" style="edgeStyle=orthogonalEdgeStyle;rounded=0;orthogonalLoop=1;jettySize=auto;html=1;exitX=0.5;exitY=1;exitDx=0;exitDy=0;entryX=0.5;entryY=0;entryDx=0;entryDy=0;entryPerimeter=0;exitPerimeter=0;" parent="1" source="-KgLNwUY_77QUvKspgZY-44" target="-KgLNwUY_77QUvKspgZY-19" edge="1">
          <mxGeometry relative="1" as="geometry">
            <mxPoint x="540" y="710" as="sourcePoint" />
            <Array as="points">
              <mxPoint x="550" y="730" />
              <mxPoint x="395" y="730" />
            </Array>
          </mxGeometry>
        </mxCell>
        <mxCell id="-KgLNwUY_77QUvKspgZY-40" value="UC08 - Unos nove rezervacije" style="points=[[0.25,0,0],[0.5,0,0],[0.75,0,0],[1,0.25,0],[1,0.5,0],[1,0.75,0],[0.75,1,0],[0.5,1,0],[0.25,1,0],[0,0.75,0],[0,0.5,0],[0,0.25,0]];shape=mxgraph.bpmn.task;whiteSpace=wrap;rectStyle=rounded;size=10;bpmnShapeType=call;isLoopSub=1;" parent="1" vertex="1">
          <mxGeometry x="180" y="640" width="100" height="60" as="geometry" />
        </mxCell>
        <mxCell id="-KgLNwUY_77QUvKspgZY-44" value="UC09 - Unos nove rezervacije" style="points=[[0.25,0,0],[0.5,0,0],[0.75,0,0],[1,0.25,0],[1,0.5,0],[1,0.75,0],[0.75,1,0],[0.5,1,0],[0.25,1,0],[0,0.75,0],[0,0.5,0],[0,0.25,0]];shape=mxgraph.bpmn.task;whiteSpace=wrap;rectStyle=rounded;size=10;bpmnShapeType=call;isLoopSub=1;" parent="1" vertex="1">
          <mxGeometry x="500" y="640" width="100" height="60" as="geometry" />
        </mxCell>
        <mxCell id="-KgLNwUY_77QUvKspgZY-45" value="" style="ellipse;html=1;shape=endState;fillColor=strokeColor;" parent="1" vertex="1">
          <mxGeometry x="380" y="980" width="30" height="30" as="geometry" />
        </mxCell>
      </root>
    </mxGraphModel>
  </diagram>
</mxfile>
